<svg xmlns="http://www.w3.org/2000/svg" style="display: none;">
    <!-- Train icon SVG path -->
    <symbol
        id="icon-train"
        xmlns="http://www.w3.org/2000/svg"
        class="h-6 w-6"
        fill="none"
        viewBox="0 0 24 24"
        stroke="currentColor"
    >
        <path
            stroke-linecap="round"
            stroke-linejoin="round"
            stroke-width="2"
            d="M3 10h11m4 4h3m-4 4h3m-7-8h3m-6 0a3 3 0 100-6 3 3 0 000 6zM21 10h-6"
        />
    </symbol>

    <symbol
        xmlns="http://www.w3.org/2000/svg"
        class="h-6 w-6"
        fill="none"
        id="icon-test"
        viewBox="0 0 24 24"
        stroke="currentColor"
    >
        <path
            stroke-linecap="round"
            stroke-linejoin="round"
            stroke-width="2"
            d="M4 6h16M4 10h16M4 14h16M4 18h16"
        />
    </symbol>

    <symbol
        xmlns="http://www.w3.org/2000/svg"
        id="icon-validation"
        class="h-6 w-6"
        fill="none"
        viewBox="0 0 24 24"
        stroke="currentColor"
    >
        <path
            stroke-linecap="round"
            stroke-linejoin="round"
            stroke-width="2"
            d="M9 12h6m-6 4h6m-6-8h6m6 4H6"
        />
    </symbol>


    <symbol
        xmlns="http://www.w3.org/2000/svg"
        fill="currentColor"
        id="icon-trash"
        viewBox="0 0 24 24"
    >
        <!-- Trash Can Icon -->
        <path
            d="M9 3V4H4V6H5V20C5 21.1 5.9 22 7 22H17C18.1 22 19 21.1 19 20V6H20V4H15V3H9ZM17 6V20H7V6H17ZM9 9H11V17H9V9ZM13 9H15V17H13V9Z"
        />
    </symbol>

    <symbol
        xmlns="http://www.w3.org/2000/svg"
        fill="currentColor"
        viewBox="0 0 122.88 90.44"
        id="icon-wav"
    >
        <defs>
            <style>
                .cls-1 {
                fill: #212121;
                }
                .cls-2 {
                fill: #f44336;
                }
            </style>
        </defs>
        <title>Remove the audio</title>
        <path
            class="cls-1"
            d="M90.14,21.81a5.14,5.14,0,0,1,8.78-3.64h0a5.16,5.16,0,0,1,1.51,3.64v44L90.14,55.62V21.81ZM0,16.61A5.13,5.13,0,0,1,1.51,13h0a5.15,5.15,0,0,1,8.78,3.64V72.23a5.13,5.13,0,0,1-1.51,3.63h0A5.15,5.15,0,0,1,0,72.23V16.61Zm32.87,16.5V85.29a5.13,5.13,0,0,1-8.77,3.64h0a5.11,5.11,0,0,1-1.5-3.63V23L32.87,33.11Zm34.77-.78a5.15,5.15,0,0,1,1.5-3.64h0a5.13,5.13,0,0,1,7.26,0h0a5.11,5.11,0,0,1,1.5,3.63V43.59L67.64,33.45V32.33ZM46.76,12.89a5.14,5.14,0,0,1,8.66,3.75v4.78l-8.66-8.53Zm8.66,42.43V72.25a5.16,5.16,0,0,1-1.51,3.64h0a5.15,5.15,0,0,1-8.78-3.64V45.19L55.42,55.32ZM112.7,10.43a5.14,5.14,0,0,1,1.49-3.62l.11-.1a5,5,0,0,1,7.1.1,5.15,5.15,0,0,1,1.48,3.62v68a5.13,5.13,0,0,1-1.48,3.62l-.11.1a5.08,5.08,0,0,1-7.83-1,12.76,12.76,0,0,0-.73-2.13,5.12,5.12,0,0,1,0-.56v-68Z"
        />
        <path
            class="cls-2"
            d="M17.94,8.27a4.83,4.83,0,1,1,6.77-6.88l80.37,79.17a4.83,4.83,0,1,1-6.77,6.88L17.94,8.27Z"
        />
    </symbol>


    <symbol
        xmlns="http://www.w3.org/2000/svg"
        fill="currentColor"
        viewBox="0 0 24 24"
        id="icon-mic"
    >
        <title>Stop recording</title>
        <path
            d="M12 14a3 3 0 003-3V5a3 3 0 00-6 0v6a3 3 0 003 3zm5-3a5 5 0 01-10 0H5a7 7 0 0014 0h-2zm-5 6v3h4v2H8v-2h4v-3h2z"
        />
        <!-- Slash Line for Disabled State -->
        <line
            x1="4"
            y1="20"
            x2="20"
            y2="4"
            stroke="currentColor"
            stroke-width="2"
            stroke-linecap="round"
        />
    </symbol>


    <symbol
        xmlns="http://www.w3.org/2000/svg"
        viewBox="0 0 20 20"
        fill="currentColor"
        id="icon-clock"
    >
        <path
            fill-rule="evenodd"
            d="M10 18a8 8 0 1 0 0-16 8 8 0 0 0 0 16Zm.75-13a.75.75 0 0 0-1.5 0v5c0 .414.336.75.75.75h4a.75.75 0 0 0 0-1.5h-3.25V5Z"
            clip-rule="evenodd"
        />
    </symbol>


    <symbol
        viewBox="0 0 24 24"
        fill="currentColor"
        xmlns="http://www.w3.org/2000/svg"
        id="icon-dataset"
    >
        <path
            d="M4 18V6"
            stroke="#1C274C"
            stroke-width="1.5"
            stroke-linecap="round"
        />
        <path
            d="M20 6V18"
            stroke="#1C274C"
            stroke-width="1.5"
            stroke-linecap="round"
        />
        <path
            d="M12 10C16.4183 10 20 8.20914 20 6C20 3.79086 16.4183 2 12 2C7.58172 2 4 3.79086 4 6C4 8.20914 7.58172 10 12 10Z"
            stroke="#1C274C"
            stroke-width="1.5"
        />
        <path
            d="M20 12C20 14.2091 16.4183 16 12 16C7.58172 16 4 14.2091 4 12"
            stroke="#1C274C"
            stroke-width="1.5"
        />
        <path
            d="M20 18C20 20.2091 16.4183 22 12 22C7.58172 22 4 20.2091 4 18"
            stroke="#1C274C"
            stroke-width="1.5"
        />
    </symbol>


    <symbol
        viewBox="0 0 24 24"
        version="1.1"
        xmlns="http://www.w3.org/2000/svg"
        xmlns:xlink="http://www.w3.org/1999/xlink"
        id="icon-update-text"
    >
        <g
            id="ðŸ”-Product-Icons"
            stroke="none"
            stroke-width="1"
            fill="none"
            fill-rule="evenodd"
        >
            <g
                id="ic_fluent_phone_update_24_regular"
                fill="#212121"
                fill-rule="nonzero"
            >
                <path
                    d="M15.75,2 C16.9926407,2 18,3.00735931 18,4.25 L18,19.75 C18,20.9926407 16.9926407,22 15.75,22 L8.25,22 C7.00735931,22 6,20.9926407 6,19.75 L6,4.25 C6,3.00735931 7.00735931,2 8.25,2 L15.75,2 Z M15.75,3.5 L8.25,3.5 C7.83578644,3.5 7.5,3.83578644 7.5,4.25 L7.5,19.75 C7.5,20.1642136 7.83578644,20.5 8.25,20.5 L15.75,20.5 C16.1642136,20.5 16.5,20.1642136 16.5,19.75 L16.5,4.25 C16.5,3.83578644 16.1642136,3.5 15.75,3.5 Z M12,7.03091032 C12.3796958,7.03091032 12.693491,7.3130642 12.7431534,7.67913976 L12.75,7.78091032 L12.7493326,14.4919103 L13.7113373,13.5308062 C13.9776038,13.2645396 14.3942675,13.2403335 14.687879,13.458188 L14.7719974,13.5308062 C15.038264,13.7970727 15.0624701,14.2137364 14.8446156,14.5073479 L14.7719974,14.5914663 L12.5303301,16.8331337 L12.4921384,16.8687687 L12.4296295,16.9177078 L12.3630989,16.9592071 L12.3025771,16.989272 L12.2018763,17.0253178 L12.1392767,17.0398316 L12.0467865,17.0513519 L11.9532009,17.0513519 L11.8614701,17.0400358 L11.7651467,17.0152982 L11.6535357,16.9682062 L11.576687,16.9220073 L11.4696699,16.8331337 L11.4696699,16.8331337 L9.22800255,14.5914663 C8.93510933,14.2985731 8.93510933,13.8236994 9.22800255,13.5308062 C9.49426911,13.2645396 9.9109328,13.2403335 10.2045443,13.458188 L10.2886627,13.5308062 L11.2493326,14.4919103 L11.25,7.78091032 C11.25,7.43573235 11.483185,7.14501766 11.8006203,7.05770104 L11.8982294,7.03775694 L12,7.03091032 Z"
                    id="ðŸŽ¨Color"
                >
                </path>
            </g>
        </g>
    </symbol>


    <symbol
        xmlns="http://www.w3.org/2000/svg"
        id="icon-checked"
        viewBox="0 0 24 24"
        stroke-width="1.5"
        stroke="currentColor"
        fill="none"
        stroke-linecap="round"
        stroke-linejoin="round"
    >
        <path stroke="none" d="M0 0h24v24H0z"></path>
        <path d="M5 12l5 5l10 -10"></path>
    </symbol>

    <symbol
        xmlns="http://www.w3.org/2000/svg"
        id="icon-next"
        viewBox="0 0 20 20"
        fill="currentColor"
    >
        <path
            fill-rule="evenodd"
            d="M7.293 14.707a1 1 0 010-1.414L10.586 10 7.293 6.707a1 1 0 011.414-1.414l4 4a1 1 0 010 1.414l-4 4a1 1 0 01-1.414 0z"
            clip-rule="evenodd"
        />
    </symbol>

    <symbol
        xmlns="http://www.w3.org/2000/svg"
        id="icon-previous"
        viewBox="0 0 20 20"
        fill="currentColor"
    >
        <path
            fill-rule="evenodd"
            d="M12.707 5.293a1 1 0 010 1.414L9.414 10l3.293 3.293a1 1 0 01-1.414 1.414l-4-4a1 1 0 010-1.414l4-4a1 1 0 011.414 0z"
            clip-rule="evenodd"
        />
    </symbol>


    <symbol
        xmlns="http://www.w3.org/2000/svg"
        fill="none"
        viewBox="0 0 24 24"
        stroke="currentColor"
        stroke-width="2"
        id="icon-plus"
    >
        <path
            stroke-linecap="round"
            stroke-linejoin="round"
            d="M12 4v16m8-8H4"
        />
    </symbol>

    <symbol
        fill="currentColor"
        viewBox="0 0 14 14"
        role="img"
        focusable="false"
        aria-hidden="true"
        xmlns="http://www.w3.org/2000/svg"
        id="icon-drop-down"
    >
        <path
            d="m 1.0000123,6.99975 0,-4.7134 5.8088699,0 c 4.1431298,0 5.8462998,0.017 5.9393898,0.06 0.0718,0.033 0.15728,0.1182 0.189991,0.19 0.0823,0.1807 0.0823,3.6053 0,3.786 -0.105991,0.2326 -0.2305,0.2494 -1.84448,0.2494 l -1.5239708,0 0,2.571 0,2.5709 -4.2849,0 -4.2849,0 0,-4.7135 z m 7.71282,1.714 0,-2.1425 -3.4279201,0 -3.42792,0 0,2.1425 0,2.1424 3.42792,0 3.4279201,0 0,-2.1424 z m -5.99886,0.857 0,-0.4285 2.5709399,0 2.57094,0 0,0.4285 0,0.4284 -2.57094,0 -2.5709399,0 0,-0.4284 z m 0,-1.714 0,-0.4285 2.5709399,0 2.57094,0 0,0.4285 0,0.4285 -2.57094,0 -2.5709399,0 0,-0.4285 z m 5.99886,-3.4279 0,-1.2855 -3.4279201,0 -3.42792,0 0,1.2855 0,1.2854 3.42792,0 3.4279201,0 0,-1.2854 z m 2.2910807,1.0846 c 0.192459,-0.1687 1.35108,-1.6577 1.35108,-1.7364 0,-0.1911 -0.1034,-0.2052 -1.49971,-0.2052 -1.3963208,0 -1.4997208,0.014 -1.4997208,0.2052 0,0.042 0.27994,0.4291 0.62208,0.8597 0.6085808,0.766 0.7934798,0.9704 0.8776398,0.9704 0.0229,0 0.0898,-0.042 0.148631,-0.094 z"
        />
    </symbol>

    <symbol
        xmlns="http://www.w3.org/2000/svg"
        viewBox="0 0 24 24"
        fill="currentColor"
        id="icon-uploader"
    >
        <path
            d="M22 13a1 1 0 0 0-1 1v4.213A2.79 2.79 0 0 1 18.213 21H5.787A2.79 2.79 0 0 1 3 18.213V14a1 1 0 0 0-2 0v4.213A4.792 4.792 0 0 0 5.787 23h12.426A4.792 4.792 0 0 0 23 18.213V14a1 1 0 0 0-1-1Z"
            data-original="#000000"
        />
        <path
            d="M6.707 8.707 11 4.414V17a1 1 0 0 0 2 0V4.414l4.293 4.293a1 1 0 0 0 1.414-1.414l-6-6a1 1 0 0 0-1.414 0l-6 6a1 1 0 0 0 1.414 1.414Z"
            data-original="#000000"
        />
    </symbol>


    <symbol
        id="icon-wrining"
        stroke="currentColor" fill="none" viewBox="0 0 24.00 24.00"
        xmlns="http://www.w3.org/2000/svg" stroke-width="0.45600000000000007">
        <g id="SVGRepo_bgCarrier" stroke-width="0"></g>
        <g id="SVGRepo_tracerCarrier" stroke-linecap="round" stroke-linejoin="round"></g>
        <g id="SVGRepo_iconCarrier">
            <path
                d="M12 7.25C12.4142 7.25 12.75 7.58579 12.75 8V13C12.75 13.4142 12.4142 13.75 12 13.75C11.5858 13.75 11.25 13.4142 11.25 13V8C11.25 7.58579 11.5858 7.25 12 7.25Z"
                fill="#ef4444"></path>
            <path
                d="M12 17C12.5523 17 13 16.5523 13 16C13 15.4477 12.5523 15 12 15C11.4477 15 11 15.4477 11 16C11 16.5523 11.4477 17 12 17Z"
                fill="#ef4444"></path>
            <path fill-rule="evenodd" clip-rule="evenodd"
                d="M8.2944 4.47643C9.36631 3.11493 10.5018 2.25 12 2.25C13.4981 2.25 14.6336 3.11493 15.7056 4.47643C16.7598 5.81544 17.8769 7.79622 19.3063 10.3305L19.7418 11.1027C20.9234 13.1976 21.8566 14.8523 22.3468 16.1804C22.8478 17.5376 22.9668 18.7699 22.209 19.8569C21.4736 20.9118 20.2466 21.3434 18.6991 21.5471C17.1576 21.75 15.0845 21.75 12.4248 21.75H11.5752C8.91552 21.75 6.84239 21.75 5.30082 21.5471C3.75331 21.3434 2.52637 20.9118 1.79099 19.8569C1.03318 18.7699 1.15218 17.5376 1.65314 16.1804C2.14334 14.8523 3.07658 13.1977 4.25818 11.1027L4.69361 10.3307C6.123 7.79629 7.24019 5.81547 8.2944 4.47643ZM9.47297 5.40432C8.49896 6.64148 7.43704 8.51988 5.96495 11.1299L5.60129 11.7747C4.37507 13.9488 3.50368 15.4986 3.06034 16.6998C2.6227 17.8855 2.68338 18.5141 3.02148 18.9991C3.38202 19.5163 4.05873 19.8706 5.49659 20.0599C6.92858 20.2484 8.9026 20.25 11.6363 20.25H12.3636C15.0974 20.25 17.0714 20.2484 18.5034 20.0599C19.9412 19.8706 20.6179 19.5163 20.9785 18.9991C21.3166 18.5141 21.3773 17.8855 20.9396 16.6998C20.4963 15.4986 19.6249 13.9488 18.3987 11.7747L18.035 11.1299C16.5629 8.51987 15.501 6.64148 14.527 5.40431C13.562 4.17865 12.8126 3.75 12 3.75C11.1874 3.75 10.4379 4.17865 9.47297 5.40432Z"
                fill="#ef4444"></path>
        </g>
    </symbol>


    <symbol xmlns="http://www.w3.org/2000/svg" viewBox="0 0 24 24" id="icon-play">
        <path d="M8 5v14l11-7z" />
    </symbol>
    <symbol xmlns="http://www.w3.org/2000/svg" viewBox="0 0 24 24" id="icon-pause">
        <path d="M6 6h4v12H6zm8 0h4v12h-4z" />
    </symbol>
    <symbol xmlns="http://www.w3.org/2000/svg" viewBox="0 0 24 24" id="icon-stop">
        <path d="M6 6h12v12H6z" />
    </symbol>

</svg>